<svg xmlns="http://www.w3.org/2000/svg" version="1.1" xmlns:xlink="http://www.w3.org/1999/xlink" x="0" y="0" viewBox="0 0 512 512" style="enable-background:new 0 0 512 512" xml:space="preserve"><g><path fill="#a66856" d="M497 250H15c-8.285 0-15-6.715-15-15v-50c0-8.285 6.715-15 15-15h482c8.285 0 15 6.715 15 15v50c0 8.285-6.715 15-15 15zm0 0" opacity="1" data-original="#a66856"/><path fill="#9d5c4b" d="M497 170H256v80h241c8.285 0 15-6.715 15-15v-50c0-8.285-6.715-15-15-15zm0 0" opacity="1" data-original="#9d5c4b"/><path fill="#525967" d="M176 470h-40c-19.3 0-35-15.7-35-35V315c0-8.285 6.715-15 15-15h80c8.285 0 15 6.715 15 15v120c0 19.3-15.7 35-35 35zm0 0" opacity="1" data-original="#525967"/><path fill="#3b4851" d="M196 300h-40v170h20c19.3 0 35-15.7 35-35V315c0-8.285-6.715-15-15-15zm0 0" opacity="1" data-original="#3b4851"/><path fill="#a4f03e" d="M206 330H106c-19.3 0-35-15.7-35-35V185c0-46.867 38.133-85 85-85s85 38.133 85 85v110c0 19.3-15.7 35-35 35zm0 0" opacity="1" data-original="#a4f03e"/><path fill="#74dc82" d="M156 100v230h50c19.3 0 35-15.7 35-35V185c0-46.867-38.133-85-85-85zm0 0" opacity="1" data-original="#74dc82"/><path fill="#ffbeaa" d="M156 130c-35.84 0-65-29.16-65-65s29.16-65 65-65 65 29.16 65 65-29.16 65-65 65zm0 0" opacity="1" data-original="#ffbeaa"/><path fill="#faa68f" d="M221 65c0-35.84-29.16-65-65-65v130c35.84 0 65-29.16 65-65zm0 0" opacity="1" data-original="#faa68f"/><path fill="#525967" d="M376 470h-40c-19.3 0-35-15.7-35-35V315c0-8.285 6.715-15 15-15h80c8.285 0 15 6.715 15 15v120c0 19.3-15.7 35-35 35zm0 0" opacity="1" data-original="#525967"/><path fill="#3b4851" d="M396 300h-40v170h20c19.3 0 35-15.7 35-35V315c0-8.285-6.715-15-15-15zm0 0" opacity="1" data-original="#3b4851"/><path fill="#a4f03e" d="M406 330H306c-19.3 0-35-15.7-35-35V185c0-46.867 38.133-85 85-85s85 38.133 85 85v110c0 19.3-15.7 35-35 35zm0 0" opacity="1" data-original="#a4f03e"/><path fill="#74dc82" d="M356 100v230h50c19.3 0 35-15.7 35-35V185c0-46.867-38.133-85-85-85zm0 0" opacity="1" data-original="#74dc82"/><path fill="#ffbeaa" d="M356 130c-35.84 0-65-29.16-65-65s29.16-65 65-65 65 29.16 65 65-29.16 65-65 65zm0 0" opacity="1" data-original="#ffbeaa"/><path fill="#faa68f" d="M421 65c0-35.84-29.16-65-65-65v130c35.84 0 65-29.16 65-65zm0 0" opacity="1" data-original="#faa68f"/><path fill="#ffce59" d="M356 510c-41.355 0-75-33.645-75-75s33.645-75 75-75 75 33.645 75 75-33.645 75-75 75zm0 0" opacity="1" data-original="#ffce59"/><path fill="#ffb229" d="M356 360c41.355 0 75 33.645 75 75s-33.645 75-75 75zm0 0" opacity="1" data-original="#ffb229"/></g></svg>