<svg xmlns="http://www.w3.org/2000/svg" version="1.1" xmlns:xlink="http://www.w3.org/1999/xlink" xmlns:svgjs="http://svgjs.com/svgjs" x="0" y="0" viewBox="0 0 512 512" style="enable-background:new 0 0 512 512" xml:space="preserve"><g><path d="M257.996 454.796 119.6 502.897c-14.146 4.914-29.607-2.568-34.521-16.714L9.778 269.511c-4.914-14.146 2.568-29.607 16.714-34.521l72.136-25.067 66.261-23.034c14.156-4.914 29.617 2.568 34.531 16.714l60.356 173.666 14.945 43.004c4.914 14.148-2.568 29.608-16.725 34.523z" style="" fill="#ede6f5" data-original="#ede6f5"/><path d="M259.776 377.27H125.747c-14.975 0-27.119-12.144-27.119-27.129V209.923l66.261-23.034c14.156-4.914 29.617 2.568 34.531 16.714l60.356 173.667z" style="" fill="#cec1e8" data-original="#cec1e8"/><path d="M161.42 400.059c-58.528-5.806-96.626-69.319-72.15-86.26 24.476-16.941 48.611 18.53 48.611 18.53s-3.064-42.794 26.643-44.684c29.708-1.888 39.21 71.562-3.104 112.414z" style="" fill="#ed4596" data-original="#ed4596"/><path d="M327.706 94.48v229.37c0 .738-.03 1.476-.091 2.194-1.112 13.964-12.791 24.935-27.038 24.935H154.06c-14.975 0-27.119-12.144-27.119-27.129V94.48c0-14.985 12.144-27.129 27.119-27.129h146.517c14.985-.001 27.129 12.143 27.129 27.129z" style="" fill="#ede6f5" data-original="#ede6f5"/><path d="M327.706 94.48v229.37c0 .738-.03 1.476-.091 2.194l-87.516-23.125c-14.48-3.822-23.125-18.666-19.293-33.146l53.49-202.423h26.28c14.986 0 27.13 12.144 27.13 27.13z" style="" fill="#cec1e8" data-original="#cec1e8"/><path d="M227.321 144.09c44.065 20.388 56.561 80.237 32.884 86.814-23.676 6.577-32.884-27.623-32.884-27.623s-9.208 34.199-32.884 27.623c-23.677-6.577-11.18-66.426 32.884-86.814z" style="" fill="#4e4f75" data-original="#4e4f75"/><path d="m269.423 282.7 141.656 37.429c14.484 3.827 29.328-4.812 33.155-19.296L502.828 79.07c3.827-14.484-4.812-29.328-19.296-33.155L341.876 8.487c-14.484-3.827-29.328 4.812-33.155 19.296l-58.594 221.764c-3.828 14.482 4.812 29.326 19.296 33.153z" style="" fill="#ede6f5" data-original="#ede6f5"/><path d="M360.647 224.22c19.958-23.783 45.206-38.478 75.743-44.082-23.782-19.957-38.478-45.205-44.082-75.743-19.958 23.783-45.206 38.478-75.743 44.082 23.783 19.959 38.477 45.206 44.082 75.743z" style="" fill="#ed4596" data-original="#ed4596"/><path d="M265.649 371.073a7.584 7.584 0 0 0-14.328 4.977l16.233 46.708a19.41 19.41 0 0 1-.87 14.931 19.414 19.414 0 0 1-11.173 9.943l-56.299 19.566a7.584 7.584 0 0 0 4.977 14.326l56.3-19.566c18.077-6.283 27.673-26.102 21.391-44.179l-16.231-46.706zM174.462 475.802l-57.35 19.93a19.401 19.401 0 0 1-14.931-.87 19.414 19.414 0 0 1-9.943-11.173L16.942 267.026c-3.537-10.178 1.866-21.336 12.044-24.873l79.792-27.731a7.585 7.585 0 0 0-4.977-14.328l-79.792 27.731c-8.758 3.044-15.805 9.315-19.846 17.659s-4.59 17.763-1.546 26.521l75.298 216.662c3.044 8.758 9.315 15.805 17.66 19.846 4.789 2.318 9.931 3.487 15.099 3.486 3.837 0 7.69-.644 11.421-1.941l57.349-19.93a7.584 7.584 0 0 0 4.675-9.652c-1.38-3.957-5.704-6.049-9.657-4.674z" fill="#000000" data-original="#000000"/><path d="M184.754 363.553a7.585 7.585 0 0 0-9.976 3.936c-4.039 9.301-9.455 17.558-16.128 24.595-36.644-5.285-63.091-35.019-68.335-55.28-1.453-5.611-2.064-13.075 3.272-16.768 3.765-2.607 7.586-3.62 11.688-3.104 4.159.533 7.949-2.421 8.472-6.576a7.585 7.585 0 0 0-6.577-8.473c-7.868-.992-15.339.921-22.216 5.682-9.634 6.669-13.032 18.71-9.323 33.041 3.756 14.514 14.203 29.944 28.659 42.333 11.485 9.841 30.588 22.109 56.381 24.668a7.58 7.58 0 0 0 6.015-2.09c9.271-8.951 16.674-19.711 22.003-31.985a7.585 7.585 0 0 0-3.935-9.979zM111.439 475.453c6.512 2.747 12.964-4.612 9.5-10.731-1.453-2.566-4.372-4.09-7.31-3.811-3.3.313-6.072 2.807-6.72 6.06-.693 3.477 1.214 7.153 4.53 8.482z" fill="#000000" data-original="#000000"/><path d="M327.71 316.268a7.584 7.584 0 0 0-7.584 7.584c0 10.777-8.768 19.546-19.546 19.546H154.064c-10.778 0-19.546-8.768-19.546-19.546V94.48c0-10.778 8.768-19.546 19.546-19.546h118.92a7.584 7.584 0 0 0 0-15.168h-118.92c-19.141 0-34.713 15.572-34.713 34.713V323.85c0 19.14 15.572 34.713 34.713 34.713H300.58c19.141 0 34.713-15.572 34.713-34.713a7.583 7.583 0 0 0-7.583-7.582z" fill="#000000" data-original="#000000"/><path d="M222.266 152.553c7.225 3.834 13.743 9.03 19.411 15.482a7.583 7.583 0 1 0 11.394-10.01c-7.894-8.985-17.188-15.988-27.621-20.816a7.581 7.581 0 0 0-6.369 0c-19.731 9.129-31.482 24.099-37.867 35.049-8.049 13.806-12.077 28.95-11.052 41.55 1.038 12.764 7.304 21.659 17.189 24.405 2.656.737 5.3 1.104 7.896 1.104 4.695 0 9.231-1.2 13.397-3.576 2.212-1.263 4.22-2.79 6.038-4.479v24.083h-15.787a7.584 7.584 0 0 0 0 15.168h26.518a7.584 7.584 0 0 0 7.584-7.584 7.564 7.564 0 0 0-3.147-6.141v-25.63c2.977 2.195 7.189 1.945 9.874-.758a7.585 7.585 0 0 0-.041-10.725c-6.873-6.82-10.066-18.262-10.093-18.362a7.583 7.583 0 0 0-14.646 0c-1.103 4.099-6.01 16.803-13.814 21.256-3.002 1.711-6.09 2.039-9.717 1.032-4.659-1.294-5.841-7.46-6.131-11.021-1.363-16.721 10.774-46.111 36.984-60.027zM163.302 309.714c-2.953-1.219-6.445-.422-8.568 1.966-2.218 2.493-2.526 6.269-.742 9.09 1.648 2.608 4.852 4.003 7.884 3.382 3.052-.625 5.448-3.066 5.989-6.139.61-3.464-1.332-6.935-4.563-8.299zM506.601 54.681c-4.663-8.012-12.168-13.73-21.131-16.098L343.813 1.155c-18.505-4.887-37.535 6.187-42.424 24.689l-58.594 221.764c-4.889 18.503 6.187 37.535 24.69 42.424l141.656 37.429a34.887 34.887 0 0 0 8.924 1.167c6.055 0 12.029-1.599 17.401-4.725 8.012-4.663 13.729-12.168 16.098-21.131l21.83-82.62a7.583 7.583 0 1 0-14.664-3.874l-21.83 82.62a19.413 19.413 0 0 1-9.064 11.897 19.406 19.406 0 0 1-14.822 2.003l-141.654-37.43c-10.418-2.752-16.654-13.468-13.901-23.886l58.595-221.764a19.413 19.413 0 0 1 9.064-11.897 19.418 19.418 0 0 1 14.822-2.004l141.656 37.43a19.412 19.412 0 0 1 11.897 9.063 19.414 19.414 0 0 1 2.004 14.822l-29.061 109.987a7.583 7.583 0 0 0 5.395 9.269 7.583 7.583 0 0 0 9.269-5.395l29.06-109.986c2.368-8.964 1.104-18.313-3.559-26.326z" fill="#000000" data-original="#000000"/><path d="M468.651 85.005c6.856 0 10.19-8.84 4.957-13.328-5.123-4.393-13.351-.107-12.479 6.671.48 3.737 3.739 6.657 7.522 6.657zM290.606 246.992c-3.701-5.622-12.603-3.65-13.775 2.906-1.189 6.653 6.643 11.345 11.999 7.377 3.184-2.356 3.997-6.993 1.776-10.283zM399.767 103.027a7.584 7.584 0 0 0-13.268-3.506c-18.7 22.285-42.69 36.247-71.303 41.498a7.584 7.584 0 0 0-3.506 13.268c22.285 18.7 36.246 42.689 41.498 71.303a7.584 7.584 0 0 0 13.269 3.507c18.7-22.285 42.69-36.247 71.303-41.498a7.584 7.584 0 0 0 3.506-13.268c-22.285-18.703-36.247-42.692-41.499-71.304zm-35.003 105.612c-6.18-21.356-17.103-40.122-32.618-56.044 21.356-6.18 40.122-17.103 56.045-32.618 6.18 21.356 17.103 40.122 32.618 56.044-21.356 6.18-40.122 17.103-56.045 32.618z" fill="#000000" data-original="#000000"/></g></svg>